name p7_grf_mean_speed_1.2
datacolumns 13
datarows 57
range 0.0000000000 0.5600000000
endheader
time	grf_x_l_mean	grf_x_l_var	grf_y_l_mean	grf_y_l_var	grf_z_l_mean	grf_z_l_var	grf_x_r_mean	grf_x_r_var	grf_y_r_mean	grf_y_r_var	grf_z_r_mean	grf_z_r_var
0.0000000000	82.3203769642	1.0000000000	533.9186099624	1.0000000000	0.0000000000	0.0000000000	8.6454427382	1.0000000000	11.1217807390	1.0000000000	0.0000000000	0.0000000000
0.0100000000	87.2377160145	1.0000000000	521.5018852416	1.0000000000	0.0000000000	0.0000000000	12.9075074932	1.0000000000	46.5006365568	1.0000000000	0.0000000000	0.0000000000
0.0200000000	92.0588452432	1.0000000000	501.4910677562	1.0000000000	0.0000000000	0.0000000000	14.0402905755	1.0000000000	104.4073600873	1.0000000000	0.0000000000	0.0000000000
0.0300000000	95.9293522206	1.0000000000	472.5607841925	1.0000000000	0.0000000000	0.0000000000	6.6941168250	1.0000000000	179.9338419465	1.0000000000	0.0000000000	0.0000000000
0.0400000000	97.2721474107	1.0000000000	433.3365863306	1.0000000000	0.0000000000	0.0000000000	-11.1207980179	1.0000000000	259.9567464404	1.0000000000	0.0000000000	0.0000000000
0.0500000000	95.0379064890	1.0000000000	383.4725749011	1.0000000000	0.0000000000	0.0000000000	-32.9684667194	1.0000000000	330.0485373271	1.0000000000	0.0000000000	0.0000000000
0.0600000000	88.8199629003	1.0000000000	324.7543976287	1.0000000000	0.0000000000	0.0000000000	-50.7680767044	1.0000000000	380.4261557516	1.0000000000	0.0000000000	0.0000000000
0.0700000000	77.8244603943	1.0000000000	260.7605154026	1.0000000000	0.0000000000	0.0000000000	-63.2047302945	1.0000000000	410.5707259216	1.0000000000	0.0000000000	0.0000000000
0.0800000000	62.6462985017	1.0000000000	196.6676393346	1.0000000000	0.0000000000	0.0000000000	-71.4741280141	1.0000000000	428.4985343112	1.0000000000	0.0000000000	0.0000000000
0.0900000000	46.2347855172	1.0000000000	138.1171405535	1.0000000000	0.0000000000	0.0000000000	-76.6191346291	1.0000000000	443.1309486358	1.0000000000	0.0000000000	0.0000000000
0.1000000000	30.1934819920	1.0000000000	89.1093768013	1.0000000000	0.0000000000	0.0000000000	-80.4141858076	1.0000000000	458.6676108108	1.0000000000	0.0000000000	0.0000000000
0.1100000000	16.6320214887	1.0000000000	51.0887582288	1.0000000000	0.0000000000	0.0000000000	-83.1618499980	1.0000000000	475.2749291899	1.0000000000	0.0000000000	0.0000000000
0.1200000000	7.3247628833	1.0000000000	24.3101727790	1.0000000000	0.0000000000	0.0000000000	-83.6718488252	1.0000000000	492.2668695703	1.0000000000	0.0000000000	0.0000000000
0.1300000000	1.8789656450	1.0000000000	8.2437660449	1.0000000000	0.0000000000	0.0000000000	-82.4211739417	1.0000000000	508.6551454290	1.0000000000	0.0000000000	0.0000000000
0.1400000000	-0.6435718790	1.0000000000	0.6454607537	1.0000000000	0.0000000000	0.0000000000	-79.4770129552	1.0000000000	522.5575057865	1.0000000000	0.0000000000	0.0000000000
0.1500000000	0.0000000000	1.0000000000	0.0000000000	1.0000000000	0.0000000000	0.0000000000	-74.4572906670	1.0000000000	531.7297185611	1.0000000000	0.0000000000	0.0000000000
0.1600000000	0.0000000000	1.0000000000	0.0000000000	1.0000000000	0.0000000000	0.0000000000	-68.5349812978	1.0000000000	534.3173690928	1.0000000000	0.0000000000	0.0000000000
0.1700000000	0.0000000000	1.0000000000	0.0000000000	1.0000000000	0.0000000000	0.0000000000	-62.5911332742	1.0000000000	529.3604248722	1.0000000000	0.0000000000	0.0000000000
0.1800000000	-0.0209829320	1.0000000000	0.3486552397	1.0000000000	0.0000000000	0.0000000000	-56.5038953925	1.0000000000	517.0309508451	1.0000000000	0.0000000000	0.0000000000
0.1900000000	0.2305783053	1.0000000000	0.7816327422	1.0000000000	0.0000000000	0.0000000000	-50.9935117435	1.0000000000	498.4690266950	1.0000000000	0.0000000000	0.0000000000
0.2000000000	0.2289125540	1.0000000000	0.8088359580	1.0000000000	0.0000000000	0.0000000000	-46.1436061562	1.0000000000	475.7528741323	1.0000000000	0.0000000000	0.0000000000
0.2100000000	0.2466745213	1.0000000000	0.6530693907	1.0000000000	0.0000000000	0.0000000000	-41.4211908051	1.0000000000	452.1901997768	1.0000000000	0.0000000000	0.0000000000
0.2200000000	0.1878354571	1.0000000000	0.4329015275	1.0000000000	0.0000000000	0.0000000000	-37.1520726766	1.0000000000	430.7893326443	1.0000000000	0.0000000000	0.0000000000
0.2300000000	0.0658780722	1.0000000000	0.2337781244	1.0000000000	0.0000000000	0.0000000000	-33.2660855476	1.0000000000	412.5962773518	1.0000000000	0.0000000000	0.0000000000
0.2400000000	-0.0604461456	1.0000000000	0.1158336426	1.0000000000	0.0000000000	0.0000000000	-29.3621101915	1.0000000000	397.5927468877	1.0000000000	0.0000000000	0.0000000000
0.2500000000	-0.2409678160	1.0000000000	0.0649267836	1.0000000000	0.0000000000	0.0000000000	-25.8498945467	1.0000000000	386.0518534538	1.0000000000	0.0000000000	0.0000000000
0.2600000000	-0.3150638264	1.0000000000	0.0339917605	1.0000000000	0.0000000000	0.0000000000	-22.7646171210	1.0000000000	378.2007735892	1.0000000000	0.0000000000	0.0000000000
0.2700000000	-0.1765694657	1.0000000000	0.0108419640	1.0000000000	0.0000000000	0.0000000000	-19.7950771883	1.0000000000	373.6081014684	1.0000000000	0.0000000000	0.0000000000
0.2800000000	-0.0594904882	1.0000000000	0.0214285512	1.0000000000	0.0000000000	0.0000000000	-17.0585766666	1.0000000000	371.5071873958	1.0000000000	0.0000000000	0.0000000000
0.2900000000	-0.0385774401	1.0000000000	0.0390090195	1.0000000000	0.0000000000	0.0000000000	-14.4407083045	1.0000000000	371.5057580010	1.0000000000	0.0000000000	0.0000000000
0.3000000000	-0.0523207023	1.0000000000	0.0457968536	1.0000000000	0.0000000000	0.0000000000	-11.7507003511	1.0000000000	373.6807588464	1.0000000000	0.0000000000	0.0000000000
0.3100000000	-0.1194606181	1.0000000000	0.0731320452	1.0000000000	0.0000000000	0.0000000000	-9.1908925574	1.0000000000	377.8961060252	1.0000000000	0.0000000000	0.0000000000
0.3200000000	-0.1856906477	1.0000000000	0.0970762343	1.0000000000	0.0000000000	0.0000000000	-6.6171101168	1.0000000000	383.4968278142	1.0000000000	0.0000000000	0.0000000000
0.3300000000	-0.1789351061	1.0000000000	0.0785472417	1.0000000000	0.0000000000	0.0000000000	-3.8395032383	1.0000000000	389.8883317035	1.0000000000	0.0000000000	0.0000000000
0.3400000000	-0.1432372073	1.0000000000	0.0431978216	1.0000000000	0.0000000000	0.0000000000	-1.0020931680	1.0000000000	396.9453046147	1.0000000000	0.0000000000	0.0000000000
0.3500000000	-0.0979905978	1.0000000000	0.0248182095	1.0000000000	0.0000000000	0.0000000000	1.9958350877	1.0000000000	404.6871250812	1.0000000000	0.0000000000	0.0000000000
0.3600000000	-0.0477624218	1.0000000000	0.0232625602	1.0000000000	0.0000000000	0.0000000000	5.2858393004	1.0000000000	412.8898836078	1.0000000000	0.0000000000	0.0000000000
0.3700000000	-0.0394158585	1.0000000000	0.0354077412	1.0000000000	0.0000000000	0.0000000000	8.8208882506	1.0000000000	421.1886245846	1.0000000000	0.0000000000	0.0000000000
0.3800000000	-0.0446300711	1.0000000000	0.0721923679	1.0000000000	0.0000000000	0.0000000000	12.7693608744	1.0000000000	429.5002599010	1.0000000000	0.0000000000	0.0000000000
0.3900000000	-0.0324123409	1.0000000000	0.1478654675	1.0000000000	0.0000000000	0.0000000000	17.2195451123	1.0000000000	438.1548901357	1.0000000000	0.0000000000	0.0000000000
0.4000000000	-0.0181258682	1.0000000000	0.2526739760	1.0000000000	0.0000000000	0.0000000000	22.1056552189	1.0000000000	447.4215878046	1.0000000000	0.0000000000	0.0000000000
0.4100000000	-0.0406058759	1.0000000000	0.3399392008	1.0000000000	0.0000000000	0.0000000000	27.5324010887	1.0000000000	457.1624543121	1.0000000000	0.0000000000	0.0000000000
0.4200000000	-0.1354424418	1.0000000000	0.3084984400	1.0000000000	0.0000000000	0.0000000000	33.4420617642	1.0000000000	467.2961153736	1.0000000000	0.0000000000	0.0000000000
0.4300000000	0.0000000000	1.0000000000	0.0000000000	1.0000000000	0.0000000000	0.0000000000	39.6364007588	1.0000000000	477.9930170401	1.0000000000	0.0000000000	0.0000000000
0.4400000000	0.0000000000	1.0000000000	0.0000000000	1.0000000000	0.0000000000	0.0000000000	46.0393813702	1.0000000000	489.0767943575	1.0000000000	0.0000000000	0.0000000000
0.4500000000	0.0000000000	1.0000000000	0.0000000000	1.0000000000	0.0000000000	0.0000000000	52.5311891743	1.0000000000	499.7810740980	1.0000000000	0.0000000000	0.0000000000
0.4600000000	0.0000000000	1.0000000000	0.0000000000	1.0000000000	0.0000000000	0.0000000000	58.9888382929	1.0000000000	509.2226508588	1.0000000000	0.0000000000	0.0000000000
0.4700000000	0.0000000000	1.0000000000	0.0000000000	1.0000000000	0.0000000000	0.0000000000	65.4493741277	1.0000000000	516.7037797889	1.0000000000	0.0000000000	0.0000000000
0.4800000000	0.0000000000	1.0000000000	0.0000000000	1.0000000000	0.0000000000	0.0000000000	71.9176384766	1.0000000000	521.5105215191	1.0000000000	0.0000000000	0.0000000000
0.4900000000	0.0000000000	1.0000000000	0.0000000000	1.0000000000	0.0000000000	0.0000000000	78.4733616413	1.0000000000	522.7238854456	1.0000000000	0.0000000000	0.0000000000
0.5000000000	8.7288688728	1.0000000000	10.9079632424	1.0000000000	0.0000000000	0.0000000000	85.2058044778	1.0000000000	519.2822824039	1.0000000000	0.0000000000	0.0000000000
0.5100000000	13.0764957880	1.0000000000	41.4692193713	1.0000000000	0.0000000000	0.0000000000	91.9945673477	1.0000000000	510.0948455226	1.0000000000	0.0000000000	0.0000000000
0.5200000000	14.3610063328	1.0000000000	91.3296821668	1.0000000000	0.0000000000	0.0000000000	98.4035407947	1.0000000000	493.9585921200	1.0000000000	0.0000000000	0.0000000000
0.5300000000	7.9517757277	1.0000000000	157.9413065020	1.0000000000	0.0000000000	0.0000000000	103.4959749498	1.0000000000	469.3457131305	1.0000000000	0.0000000000	0.0000000000
0.5400000000	-8.1054970657	1.0000000000	232.8711342195	1.0000000000	0.0000000000	0.0000000000	105.7998342879	1.0000000000	434.4618053756	1.0000000000	0.0000000000	0.0000000000
0.5500000000	-29.4588667764	1.0000000000	305.8383031188	1.0000000000	0.0000000000	0.0000000000	104.0972277261	1.0000000000	388.2223117106	1.0000000000	0.0000000000	0.0000000000
0.5600000000	-49.2441328913	1.0000000000	368.0675970572	1.0000000000	0.0000000000	0.0000000000	97.5383408468	1.0000000000	331.6658921359	1.0000000000	0.0000000000	0.0000000000
